<svg width="256" height="256" xmlns="http://www.w3.org/2000/svg">
  <defs>
    <pattern id="grid" width="10" height="10" patternUnits="userSpaceOnUse">
      <path d="M 10 0 L 0 0 0 10" fill="none" stroke="#ddd" stroke-width="1"/>
    </pattern>
  </defs>
  
  <!-- Background -->
  <rect width="100%" height="100%" fill="#8B4513"/>
  <rect width="100%" height="100%" fill="url(#grid)"/>
  
  <!-- Goldmines -->
  <circle cx="64" cy="64" r="8" fill="#FFD700" stroke="black" stroke-width="2"/>
                <text x="64" y="67" text-anchor="middle" font-size="10" fill="black">G</text>
  <circle cx="192" cy="192" r="8" fill="#FFD700" stroke="black" stroke-width="2"/>
                <text x="192" y="195" text-anchor="middle" font-size="10" fill="black">G</text>
  <circle cx="64" cy="192" r="8" fill="#FFD700" stroke="black" stroke-width="2"/>
                <text x="64" y="195" text-anchor="middle" font-size="10" fill="black">G</text>
  <circle cx="192" cy="64" r="8" fill="#FFD700" stroke="black" stroke-width="2"/>
                <text x="192" y="67" text-anchor="middle" font-size="10" fill="black">G</text>
  <circle cx="128" cy="128" r="8" fill="#FFD700" stroke="black" stroke-width="2"/>
                <text x="128" y="131" text-anchor="middle" font-size="10" fill="black">G</text>
  
  <!-- Player Starting Positions -->
  <rect x="24" y="24" width="16" height="16" fill="#FF0000" stroke="black" stroke-width="2"/>
                <text x="32" y="35" text-anchor="middle" font-size="10" fill="white">TH</text>
  <rect x="216" y="216" width="16" height="16" fill="#0000FF" stroke="black" stroke-width="2"/>
                <text x="224" y="227" text-anchor="middle" font-size="10" fill="white">TH</text>
  
  <!-- Units -->
  
  
  <!-- Buildings -->
  
  
  <!-- Legend -->
  <g transform="translate(10, 10)">
    <rect width="15" height="15" fill="#FFD700" stroke="black"/>
    <text x="20" y="12" font-size="12" fill="white">Goldmine</text>
    <rect width="15" height="15" fill="#FF0000" stroke="black" y="20"/>
    <text x="20" y="32" font-size="12" fill="white">Player 1</text>
    <rect width="15" height="15" fill="#0000FF" stroke="black" y="40"/>
    <text x="20" y="52" font-size="12" fill="white">Player 2</text>
  </g>
</svg>